<?xml version="1.0" encoding="utf-8"?>
<!-- Generator: Adobe Illustrator 16.0.0, SVG Export Plug-In . SVG Version: 6.00 Build 0)  -->
<!DOCTYPE svg PUBLIC "-//W3C//DTD SVG 1.1//EN" "http://www.w3.org/Graphics/SVG/1.1/DTD/svg11.dtd">
<svg version="1.1" id="Layer_1" xmlns="http://www.w3.org/2000/svg" xmlns:xlink="http://www.w3.org/1999/xlink" x="0px" y="0px"
	 width="220.001px" height="33.738px" viewBox="0 0 220.001 33.738" enable-background="new 0 0 220.001 33.738"
	 xml:space="preserve">
<g>
	<path fill="#FFFFFF" stroke="#000000" stroke-width="0.75" stroke-miterlimit="10" d="M219.001,30.919
		c0,1.005-2.868,1.819-6.408,1.819H7.41C3.87,32.738,1,31.924,1,30.919V2.818C1,1.814,3.87,1,7.41,1h205.183
		c3.54,0,6.408,0.814,6.408,1.818V30.919z"/>
	<rect x="189.367" y="8.888" width="3.032" height="2.941"/>
	<rect x="192.399" y="11.831" width="3.033" height="2.941"/>
	<rect x="195.432" y="8.888" width="3.032" height="2.941"/>
	<rect x="207.561" y="20.654" width="3.032" height="2.941"/>
	<rect x="204.529" y="23.596" width="3.032" height="2.941"/>
	<rect x="201.497" y="26.537" width="3.032" height="2.941"/>
	<rect x="198.463" y="29.479" width="3.033" height="2.941"/>
	<rect x="186.334" y="29.479" width="3.032" height="2.941"/>
	<rect x="183.3" y="26.537" width="3.034" height="2.941"/>
	<rect x="210.593" y="17.713" width="3.032" height="2.94"/>
	<rect x="207.561" y="8.888" width="3.032" height="2.941"/>
	<rect x="210.593" y="11.831" width="3.032" height="2.941"/>
	<rect x="213.625" y="14.771" width="3.032" height="2.941"/>
	<rect x="204.529" y="5.947" width="3.032" height="2.941"/>
	<rect x="198.463" y="5.947" width="3.033" height="2.941"/>
	<rect x="180.269" y="14.771" fill="#ED1C24" width="3.032" height="2.941"/>
	<rect x="183.301" y="14.771" width="3.033" height="2.941"/>
	<rect x="186.334" y="14.771" fill="#ED1C24" width="3.032" height="2.941"/>
	<rect x="183.301" y="17.713" fill="#ED1C24" width="3.033" height="2.94"/>
	<rect x="183.301" y="11.831" fill="#ED1C24" width="3.033" height="2.941"/>
	<rect x="201.496" y="3.006" width="3.033" height="2.94"/>
	<g>
		<rect x="177.236" y="14.771" fill="#ED1C24" width="3.033" height="2.941"/>
		<rect x="189.367" y="14.771" fill="#ED1C24" width="3.032" height="2.941"/>
		<rect x="183.301" y="8.888" fill="#ED1C24" width="3.033" height="2.941"/>
		<rect x="183.301" y="20.654" fill="#ED1C24" width="3.033" height="2.941"/>
		<rect x="180.269" y="11.831" fill="#ED1C24" width="3.032" height="2.941"/>
		<rect x="186.334" y="11.83" fill="#ED1C24" width="3.032" height="2.941"/>
		<rect x="186.334" y="17.713" fill="#ED1C24" width="3.032" height="2.94"/>
		<rect x="180.269" y="17.713" fill="#ED1C24" width="3.032" height="2.941"/>
	</g>
	<g>
		<rect x="198.463" y="14.771" fill="#ED1C24" width="3.033" height="2.941"/>
		<rect x="201.497" y="14.771" width="3.032" height="2.941"/>
		<rect x="204.529" y="14.771" fill="#ED1C24" width="3.032" height="2.941"/>
		<rect x="201.497" y="17.713" fill="#ED1C24" width="3.032" height="2.94"/>
		<rect x="201.497" y="11.831" fill="#ED1C24" width="3.032" height="2.941"/>
		<g>
			<rect x="195.431" y="14.771" fill="#ED1C24" width="3.032" height="2.941"/>
			<rect x="207.561" y="14.771" fill="#ED1C24" width="3.032" height="2.941"/>
			<rect x="201.497" y="8.888" fill="#ED1C24" width="3.032" height="2.941"/>
			<rect x="201.497" y="20.654" fill="#ED1C24" width="3.032" height="2.941"/>
			<rect x="198.463" y="11.83" fill="#ED1C24" width="3.033" height="2.942"/>
			<rect x="204.529" y="11.83" fill="#ED1C24" width="3.032" height="2.941"/>
			<rect x="204.529" y="17.713" fill="#ED1C24" width="3.032" height="2.94"/>
			<rect x="198.463" y="17.713" fill="#ED1C24" width="3.033" height="2.941"/>
		</g>
	</g>
	<g>
		<rect x="176.226" y="23.481" width="7.075" height="3.055"/>
		<path d="M7.712,26.537V9.38h15.164v2.997H11.907v3.669h10.099v3.022H11.907v4.419h11.466v3.049H7.712z"/>
		<path d="M31.111,26.537v-14.16h-6.215V9.38h16.78v2.997h-6.246v14.16H31.111z"/>
		<path d="M56.313,26.537v-7.7h-8.048v7.7h-4.319V9.38h4.319v6.459h8.048V9.38h4.35v17.157H56.313z"/>
		<path d="M75.89,26.537l-8.826-11.524v11.524h-4.008V9.38h4.568l8.204,11.033V9.38h4.04v17.157H75.89z"/>
		<path d="M82.044,18.114c0-5.814,3.573-9.303,9.912-9.303s9.851,3.488,9.851,9.379s-3.512,8.94-9.851,8.94
			S82.044,23.902,82.044,18.114z M97.549,18.191c0-4.056-1.988-6.202-5.593-6.202c-3.636,0-5.655,2.146-5.655,6.202
			c0,4.057,2.082,5.866,5.655,5.866C95.063,24.057,97.549,22.248,97.549,18.191z"/>
		<path d="M121.835,20.646c-0.869,3.901-4.102,6.485-8.887,6.485c-5.407,0-9.54-3.075-9.54-8.966c0-5.814,3.698-9.354,9.602-9.354
			c5.158,0,8.421,2.739,8.824,6.202h-4.319c-0.59-1.938-2.423-3.101-4.475-3.101c-3.573,0-5.251,2.299-5.251,6.046
			c0,3.798,1.678,6.046,5.035,6.046c2.548,0,4.102-1.214,4.691-3.359H121.835z"/>
		<path d="M136.72,26.537l-1.305-3.54h-7.613l-1.46,3.54h-4.568l7.365-17.157h5.003l7.271,17.157H136.72z M131.593,13.23h-0.03
			l-2.642,6.821h5.252L131.593,13.23z"/>
		<path d="M154.154,14.444c-0.217-1.757-1.491-2.609-4.133-2.609c-2.393,0-3.667,0.697-3.667,2.093c0,0.982,0.964,1.654,3.201,2.093
			c2.642,0.517,4.506,0.931,6.122,1.499c1.864,0.646,3.23,1.706,3.23,4.444c0,3.281-3.542,5.167-7.799,5.167
			c-5.967,0-9.012-1.964-9.168-5.736h4.165c0.031,1.731,1.927,2.842,4.443,2.842c2.703,0,4.165-0.904,4.165-2.3
			c0-1.137-0.561-1.834-3.201-2.299c-6.309-1.111-9.105-2.042-9.105-5.736c0-2.842,2.518-5.09,7.613-5.09
			c4.973,0,8.079,2.249,8.234,5.633H154.154z"/>
		<path d="M161.022,26.537V9.38h15.164v2.997h-10.97v3.669h10.101v3.023h-10.101v4.419h11.468v3.049H161.022z"/>
	</g>
	<g>
		<rect x="189.367" y="23.596" fill="#ED1C24" width="3.032" height="2.941"/>
		<rect x="192.399" y="23.596" width="3.033" height="2.941"/>
		<rect x="195.431" y="23.596" fill="#ED1C24" width="3.032" height="2.941"/>
		<rect x="192.399" y="26.537" fill="#ED1C24" width="3.033" height="2.941"/>
		<rect x="192.399" y="20.654" fill="#ED1C24" width="3.033" height="2.941"/>
		<g>
			<rect x="186.334" y="23.596" fill="#ED1C24" width="3.032" height="2.941"/>
			<rect x="198.463" y="23.596" fill="#ED1C24" width="3.033" height="2.941"/>
			<rect x="192.399" y="17.713" fill="#ED1C24" width="3.033" height="2.94"/>
			<rect x="192.399" y="29.479" fill="#ED1C24" width="3.033" height="2.941"/>
			<rect x="189.367" y="20.653" fill="#ED1C24" width="3.032" height="2.942"/>
			<rect x="195.431" y="20.653" fill="#ED1C24" width="3.032" height="2.942"/>
			<rect x="195.431" y="26.537" fill="#ED1C24" width="3.032" height="2.941"/>
			<rect x="189.367" y="26.537" fill="#ED1C24" width="3.032" height="2.941"/>
		</g>
	</g>
</g>
</svg>
